<?xml version="1.0"?>
<svg xmlns="http://www.w3.org/2000/svg" id="Layer_1" data-name="Layer 1" viewBox="0 0 128 128" width="512" height="512"><title>GREEN EARTH</title><circle cx="64.003" cy="78.434" r="31.447" style="fill:#fff"/><path d="M32.556,78.434a31.445,31.445,0,0,0,18.207,28.524c1.351-3.442.481-8.08-2.1-11.413-3.928-5.072.124-8.623,3.674-12.68S54.873,71.2,48.026,66.634A10.964,10.964,0,0,1,43.3,54.778h0A31.364,31.364,0,0,0,32.556,78.434Z" style="fill:#fff"/><path d="M67.415,50.362a31.437,31.437,0,0,0-23.743,52.054A31.438,31.438,0,0,0,87.746,57.827,31.313,31.313,0,0,0,67.415,50.362Z" style="fill:#04bac3"/><path d="M51.438,70.009A11.47,11.47,0,0,1,48.12,66.7c-.033-.022-.061-.047-.094-.069a10.883,10.883,0,0,1-4.37-5.4,31.4,31.4,0,0,0-.026,41.136,31.493,31.493,0,0,0,7.132,4.588c1.351-3.442.481-8.081-2.1-11.413-3.928-5.072.124-8.623,3.674-12.68,2.683-3.066,2.754-8.158-.324-12.434C51.821,70.29,51.641,70.144,51.438,70.009Z" style="fill:#01a63d"/><path d="M82.509,53.015A34.316,34.316,0,0,1,81.5,61.562c-2.282,9.13,2.029,14.47,5.326,16.872a31.965,31.965,0,0,1,7.258,9.179,31.461,31.461,0,0,0-11.576-34.6Z" style="fill:#01a63d"/><path d="M84.9,22.3s-12.135-.453-16.277,5.122c-3.293,4.433.645,10.824,6.075,11.021,1.514.055,5.254-.736,6.259-3.485C82.889,29.663,79.325,25.672,84.9,22.3Z" style="fill:#fff"/><path d="M39.35,18.106s15.726-.587,21.093,6.638c4.267,5.745-.836,14.026-7.872,14.282-1.962.071-6.809-.954-8.111-4.516C41.95,27.648,46.569,22.477,39.35,18.106Z" style="fill:#fff"/><path d="M43.14,18.189c7.025,4.353,2.486,9.5,4.979,16.321.953,2.606,3.8,3.851,6.03,4.3,6.181-1.317,10.233-8.767,6.294-14.071C56.748,19.77,48.143,18.5,43.14,18.189Z" style="fill:#fccd43"/><path d="M84.752,22.4c-3.91.29-10.136,1.341-12.873,5.025-3,4.034,0,9.674,4.656,10.808,1.68-.389,3.715-1.351,4.417-3.271C82.871,29.713,79.405,25.749,84.752,22.4Z" style="fill:#fd511f"/><path d="M84.834,100.294q-.38.362-.773.712a1.25,1.25,0,1,0,1.662,1.867q.424-.377.834-.768a1.25,1.25,0,1,0-1.724-1.811Z" style="fill:#014749"/><path d="M65.382,45.774A17.821,17.821,0,0,1,69.022,37.3a8.692,8.692,0,0,0,5.623,2.4c.063,0,.127,0,.2,0,1.987,0,6.077-1.007,7.283-4.308a14.96,14.96,0,0,0,.7-5.949c-.081-2.713-.129-4.35,2.712-6.07a1.25,1.25,0,0,0-.6-2.318c-.52-.019-12.844-.407-17.326,5.626a7.323,7.323,0,0,0-1.183,2.394,1.25,1.25,0,0,0,2.407.675,4.821,4.821,0,0,1,.782-1.578c2.434-3.276,8.208-4.243,11.906-4.519-1.315,1.875-1.255,3.893-1.2,5.865a12.738,12.738,0,0,1-.553,5.016c-.775,2.119-4.019,2.69-5.04,2.665a6.217,6.217,0,0,1-4.075-1.785,23.38,23.38,0,0,1,5.706-4.337,1.25,1.25,0,0,0-1.09-2.25c-.393.19-8.04,3.986-11.206,12.1a23.674,23.674,0,0,0-2.756-5.545A9.635,9.635,0,0,0,61.443,24C55.75,16.336,39.969,16.83,39.3,16.858a1.25,1.25,0,0,0-.6,2.318c3.867,2.341,3.8,4.669,3.693,8.193a19.081,19.081,0,0,0,.89,7.571c1.5,4.092,6.6,5.34,9.085,5.34q.127,0,.245,0a10.463,10.463,0,0,0,2.756-.474,1.25,1.25,0,0,0-.747-2.386,7.993,7.993,0,0,1-2.1.361c-1.449.052-5.806-.724-6.892-3.7a16.793,16.793,0,0,1-.739-6.638c.081-2.707.163-5.485-1.989-8.014,4.772.279,13.1,1.441,16.534,6.061a6.921,6.921,0,0,1,.275,7.731,29.616,29.616,0,0,0-8.986-7.279,1.25,1.25,0,0,0-1.089,2.25c.119.058,11.5,5.7,12.992,17.581A32.686,32.686,0,0,0,50.26,108.095c.016.007.027.021.043.028s.021,0,.032.006a32.666,32.666,0,0,0,30.745-1.806,1.25,1.25,0,0,0-1.308-2.131,30.211,30.211,0,0,1-27.486,2.076,13.791,13.791,0,0,0-2.638-11.486c-2.79-3.6-.921-6.013,2.622-9.963.335-.373.672-.749,1-1.129a10.044,10.044,0,0,0,2.21-7.97A14.816,14.816,0,0,0,48.716,65.6a1.25,1.25,0,1,0-1.387,2.08,12.328,12.328,0,0,1,5.677,8.373,7.549,7.549,0,0,1-1.613,5.995c-.326.372-.656.741-.984,1.106-3.253,3.626-6.94,7.736-2.738,13.162a11.529,11.529,0,0,1,2.3,8.851,30.159,30.159,0,0,1-8.221-47.116,11.977,11.977,0,0,0,1.566,5.44,1.25,1.25,0,0,0,2.165-1.25,10.082,10.082,0,0,1-1.064-6.757A30.1,30.1,0,0,1,81.24,53.666a32.974,32.974,0,0,1-.955,7.595c-2.664,10.658,3.171,16.268,5.8,18.186a30.7,30.7,0,0,1,6.637,8.3,29.979,29.979,0,0,1-5.092,9.491,1.25,1.25,0,0,0,1.955,1.558A32.349,32.349,0,0,0,96.7,78.436,32.733,32.733,0,0,0,65.382,45.774ZM87.56,77.425c-2.222-1.619-7.144-6.376-4.849-15.559a35.163,35.163,0,0,0,.965-6.309A30.131,30.131,0,0,1,94.2,78.436a30.545,30.545,0,0,1-.6,5.933A29.84,29.84,0,0,0,87.56,77.425Z" style="fill:#014749"/></svg>
